<svg id="Capa_1" enable-background="new 0 0 512 512" height="512" viewBox="0 0 512 512" width="512" xmlns="http://www.w3.org/2000/svg"><path fill="#ff0124" d="m255.589 377.463-68.364 14.43.123 120.107 67.908-35.619 69.578 35.281-.259-119.587-.136.15z"/><path fill="#ff0124" d="m415.481 128.747-6.067-59.511-54.597-24.472-39.91-44.578-58.543 12.357-58.5-12.543-40.078 44.409-54.781 24.104-6.315 59.526-30.101 51.742 29.931 51.828 6.067 59.512 54.597 24.472 39.91 44.578 58.543-12.357 58.5 12.543 40.078-44.409 54.781-24.104 6.315-59.526 30.101-51.742zm-159.481 169.237c-64.958 0-117.806-52.847-117.806-117.806s52.848-117.806 117.806-117.806 117.806 52.847 117.806 117.806-52.847 117.806-117.806 117.806z"/><path fill="#ff0124" d="m256 92.063c-48.587 0-88.115 39.528-88.115 88.115s39.528 88.115 88.115 88.115 88.115-39.528 88.115-88.115-39.528-88.115-88.115-88.115zm31.193 131.012-31.193-13.056-31.193 13.056 2.778-33.701-22.056-25.632 32.91-7.773 17.561-28.899 17.562 28.899 32.91 7.773-22.056 25.632z"/></svg>